<svg width="81" height="100" viewBox="0 0 81 100" fill="none" xmlns="http://www.w3.org/2000/svg">
<path d="M22.248 92.5L27.8338 86.9142C28.6149 86.1332 28.6149 84.8668 27.8338 84.0858L26.248 82.5M2.24802 72.5L7.8338 66.9142C8.61485 66.1332 9.88118 66.1332 10.6622 66.9142L26.248 82.5M26.248 82.5L30.248 78.5H50.5325C51.6444 78.5 52.7245 78.1294 53.6022 77.4468L68.0904 66.1782C69.5185 65.0674 70.7478 63.7225 71.7262 62.2007L78.5928 51.5192C78.9326 50.9907 78.7064 50.2834 78.123 50.05L77.0597 49.6247C75.3314 48.9333 73.3621 49.2594 71.9488 50.4708L67.248 54.5L58.248 60.3M16.248 62.5L16.3888 62.2889C18.7998 58.6723 22.8588 56.5 27.2054 56.5H32.7074C33.7251 56.5 34.7335 56.6942 35.6785 57.0722L37.4599 57.7848C38.6411 58.2572 39.9016 58.5 41.1738 58.5H54.3893C55.5859 58.5 56.7402 58.9429 57.6296 59.7434C59.6251 61.5393 59.7793 64.6156 57.9734 66.6021L57.7359 66.8634C56.7883 67.9057 55.4449 68.5 54.0362 68.5H40.248C38.0389 68.5 36.248 70.2909 36.248 72.5M58.248 52.5V33.5C58.248 31.8431 56.9049 30.5 55.248 30.5H45.748M33.248 49.5V33.5C33.248 31.8431 34.5912 30.5 36.248 30.5H45.748M45.748 30.5V26.5M45.748 26.5V22M45.748 26.5C39.7012 25.6042 36.8501 18.5343 40.5839 13.6943L45.748 7L50.9122 13.6943C54.6459 18.5343 51.7949 25.6042 45.748 26.5Z" stroke="#F0725C" stroke-width="3" stroke-linecap="round" stroke-linejoin="round"/>
</svg>
