<svg width="24" height="24" viewBox="0 0 24 24" fill="none" xmlns="http://www.w3.org/2000/svg">
<path fill-rule="evenodd" clip-rule="evenodd" d="M8.86288 1.29289C9.15714 1.58715 9.2384 2.03289 9.06693 2.41206C8.53035 3.59854 8.23116 4.91624 8.23116 6.30654C8.23116 11.5324 12.4676 15.7688 17.6935 15.7688C19.0837 15.7688 20.4015 15.4696 21.5879 14.933C21.9671 14.7616 22.4128 14.8428 22.7071 15.1371C23.0014 15.4313 23.0826 15.8771 22.9112 16.2563C21.1136 20.231 17.1124 23 12.4623 23C6.13186 23 1 17.8682 1 11.5377C1 6.88761 3.76893 2.88639 7.74371 1.08884C8.12288 0.917365 8.56862 0.998633 8.86288 1.29289ZM6.41336 4.26077C4.32688 5.99711 3 8.61307 3 11.5377C3 16.7636 7.23642 21 12.4623 21C15.3869 21 18.0029 19.6731 19.7392 17.5866C19.0751 17.7063 18.3913 17.7688 17.6935 17.7688C11.363 17.7688 6.23116 12.637 6.23116 6.30654C6.23116 5.60867 6.29363 4.92493 6.41336 4.26077Z" fill="#151515"/>
</svg>
