<svg width="24" height="24" viewBox="0 0 24 24" fill="none" xmlns="http://www.w3.org/2000/svg">
<path fill-rule="evenodd" clip-rule="evenodd" d="M12 3C7.02944 3 3 7.02944 3 12C3 16.9706 7.02944 21 12 21C16.9706 21 21 16.9706 21 12C21 7.02944 16.9706 3 12 3ZM1 12C1 5.92487 5.92487 1 12 1C18.0751 1 23 5.92487 23 12C23 18.0751 18.0751 23 12 23C5.92487 23 1 18.0751 1 12Z" fill="#151515"/>
<path d="M16.555 11.1681L10.555 7.16815C10.4044 7.06765 10.2293 7.00993 10.0484 7.00117C9.86752 6.99241 9.68766 7.03292 9.52801 7.11839C9.36837 7.20386 9.23493 7.33108 9.14193 7.48646C9.04894 7.64185 8.99988 7.81956 9 8.00065V16.0007C8.99988 16.1817 9.04894 16.3595 9.14193 16.5148C9.23493 16.6702 9.36837 16.7974 9.52801 16.8829C9.68766 16.9684 9.86752 17.0089 10.0484 17.0001C10.2293 16.9914 10.4044 16.9337 10.555 16.8332L16.555 12.8332C16.6922 12.7419 16.8047 12.6181 16.8825 12.4729C16.9603 12.3276 17.001 12.1654 17.001 12.0006C17.001 11.8359 16.9603 11.6737 16.8825 11.5284C16.8047 11.3832 16.6922 11.2594 16.555 11.1681ZM11 14.1319V9.87565L14.1975 12.0006L11 14.1319Z" fill="#151515"/>
</svg>
