<svg width="45" height="44" viewBox="0 0 45 44" fill="none" xmlns="http://www.w3.org/2000/svg">
<path fill-rule="evenodd" clip-rule="evenodd" d="M44.4991 22C44.4991 34.1503 34.5376 44 22.2495 44C9.96146 44 0 34.1503 0 22C0 9.84974 9.96146 0 22.2495 0C34.5376 0 44.4991 9.84974 44.4991 22ZM23.9555 36.3733C15.7216 36.3733 8.30649 31.1749 8.30649 21.9334C8.30649 14.2198 13.497 9.23587 20.5771 7.95443C16.9857 10.842 16.7212 16.8514 16.8133 19.0898C16.9043 28.1537 22.4542 32.2857 27.6857 32.2857C29.5964 32.2857 32.2803 31.7525 34.6459 29.1756L36.0106 30.2863C34.8278 32.419 31.0976 36.3733 23.9555 36.3733ZM32.0074 19.4897C35.0098 19.4897 36.1926 17.4014 36.1926 15.402C36.1926 13.621 35.2848 11.8305 33.5626 10.4174C33.4624 11.6287 33.0199 12.3014 32.8112 12.4864C32.7444 10.0473 30.4178 8.65555 29.2628 8.26457C27.9269 7.81236 26.1685 7.62667 24.3194 7.62667C23.6599 7.62667 23.0103 7.65559 22.3728 7.71282C24.0189 8.35744 27.4795 10.4036 27.8222 15.5353C27.9587 17.5791 29.1415 19.4897 32.0074 19.4897Z" fill="#FCFCFC"/>
</svg>
