<svg width="79" height="22" viewBox="0 0 79 22" fill="none" xmlns="http://www.w3.org/2000/svg">
<path fill-rule="evenodd" clip-rule="evenodd" d="M66.7343 0.0235479C67.2051 0.00900435 67.6442 0.260396 67.8699 0.673829L78.0971 19.4009C78.428 20.0068 78.205 20.7662 77.5991 21.0971C76.9932 21.428 76.2338 21.205 75.9029 20.5991L66.8583 4.03728L59.132 20.5303C58.934 20.9529 58.5172 21.23 58.051 21.249C57.5847 21.268 57.1467 21.0258 56.915 20.6208L48.1527 5.30509L40.089 19.6137C39.8766 19.9907 39.4843 20.2309 39.052 20.249C38.6197 20.267 38.2089 20.0601 37.9658 19.7022L28.7554 6.13636L19.0168 19.7542C18.7738 20.0939 18.3772 20.2899 17.9598 20.2764C17.5423 20.263 17.1591 20.0419 16.9386 19.6872L10.2555 8.94194L3.03875 19.7224C2.65471 20.2961 1.87833 20.4498 1.30465 20.0658C0.730971 19.6818 0.577235 18.9054 0.96127 18.3317L9.25537 5.94185C9.49153 5.58908 9.89059 5.38027 10.315 5.38738C10.7395 5.3945 11.1314 5.61655 11.3556 5.97704L18.0725 16.7768L27.7653 3.22312C28.0031 2.89058 28.3885 2.69535 28.7973 2.70033C29.2061 2.70531 29.5866 2.90987 29.8162 3.2481L38.9012 16.6292L47.0555 2.15989C47.2763 1.76804 47.6907 1.52505 48.1404 1.52359C48.5902 1.52214 49.0061 1.76244 49.2295 2.15285L57.8894 17.2895L65.6409 0.742679C65.8408 0.316101 66.2635 0.0380914 66.7343 0.0235479Z" fill="#151515"/>
</svg>
