<svg width="79" height="22" viewBox="0 0 79 22" fill="none" xmlns="http://www.w3.org/2000/svg">
<g clip-path="url(#clip0_4070_502)">
<path fill-rule="evenodd" clip-rule="evenodd" d="M66.7342 0.0235479C67.205 0.00900433 67.6441 0.260396 67.8698 0.673829L78.097 19.4009C78.4279 20.0068 78.2049 20.7662 77.599 21.0971C76.9931 21.428 76.2337 21.205 75.9028 20.5991L66.8582 4.03728L59.1319 20.5303C58.9339 20.9529 58.5171 21.23 58.0509 21.249C57.5846 21.268 57.1466 21.0258 56.9149 20.6208L48.1526 5.30509L40.0889 19.6137C39.8765 19.9907 39.4842 20.2309 39.0519 20.249C38.6196 20.267 38.2088 20.0601 37.9657 19.7022L28.7553 6.13636L19.0167 19.7542C18.7737 20.0939 18.3771 20.2899 17.9597 20.2764C17.5422 20.263 17.159 20.0419 16.9385 19.6872L10.2554 8.94194L3.03863 19.7224C2.65459 20.2961 1.87821 20.4498 1.30453 20.0658C0.730849 19.6818 0.577113 18.9054 0.961148 18.3317L9.25525 5.94185C9.49141 5.58908 9.89047 5.38027 10.3149 5.38738C10.7394 5.3945 11.1313 5.61655 11.3555 5.97704L18.0724 16.7768L27.7652 3.22312C28.003 2.89058 28.3884 2.69535 28.7972 2.70033C29.206 2.70531 29.5865 2.90987 29.8161 3.2481L38.9011 16.6292L47.0554 2.15989C47.2762 1.76804 47.6906 1.52505 48.1403 1.52359C48.5901 1.52214 49.006 1.76244 49.2294 2.15285L57.8893 17.2895L65.6408 0.742679C65.8407 0.316101 66.2634 0.0380914 66.7342 0.0235479Z" fill="#FCFCFC"/>
</g>
<defs>
<clipPath id="clip0_4070_502">
<rect width="79" height="22" fill="white"/>
</clipPath>
</defs>
</svg>
