<svg width="105" height="100" viewBox="0 0 105 100" fill="none" xmlns="http://www.w3.org/2000/svg">
<path d="M11 43C11 43.8284 11.6715 44.5 12.5 44.5C13.3284 44.5 14 43.8284 14 43H11ZM94.5 33.5V35C95.3284 35 96 34.3284 96 33.5H94.5ZM96.5 54V52.5C95.6715 52.5 95 53.1716 95 54H96.5ZM5.49996 62.5C4.67154 62.5 3.99996 63.1716 3.99996 64C3.99996 64.8284 4.67154 65.5 5.49996 65.5V62.5ZM21.5 65.5C22.3284 65.5 23 64.8284 23 64C23 63.1716 22.3284 62.5 21.5 62.5V65.5ZM9.49996 55.5C8.67154 55.5 7.99996 56.1716 7.99996 57C7.99996 57.8284 8.67154 58.5 9.49996 58.5V55.5ZM29.5 58.5C30.3284 58.5 31 57.8284 31 57C31 56.1716 30.3284 55.5 29.5 55.5V58.5ZM2.00005 48.5C1.17162 48.5 0.500046 49.1716 0.500046 50C0.500046 50.8284 1.17162 51.5 2.00005 51.5V48.5ZM25 51.5C25.8285 51.5 26.5 50.8284 26.5 50C26.5 49.1716 25.8285 48.5 25 48.5V51.5ZM25.752 71.5C26.5804 71.5 27.252 70.8284 27.252 70C27.252 69.1716 26.5804 68.5 25.752 68.5V71.5ZM41.2479 68.5C40.4195 68.5 39.7479 69.1716 39.7479 70C39.7479 70.8284 40.4195 71.5 41.2479 71.5V68.5ZM80.752 71.5C81.5804 71.5 82.252 70.8284 82.252 70C82.252 69.1716 81.5804 68.5 80.752 68.5V71.5ZM96.2479 68.5C95.4195 68.5 94.7479 69.1716 94.7479 70C94.7479 70.8284 95.4195 71.5 96.2479 71.5V68.5ZM95 72C95 75.5899 92.0898 78.5 88.5 78.5V81.5C93.7467 81.5 98 77.2467 98 72H95ZM88.5 78.5C84.9101 78.5 82 75.5899 82 72H79C79 77.2467 83.2533 81.5 88.5 81.5V78.5ZM82 72C82 68.4101 84.9101 65.5 88.5 65.5V62.5C83.2533 62.5 79 66.7533 79 72H82ZM88.5 65.5C92.0898 65.5 95 68.4101 95 72H98C98 66.7533 93.7467 62.5 88.5 62.5V65.5ZM40 72C40 75.5899 37.0898 78.5 33.5 78.5V81.5C38.7467 81.5 43 77.2467 43 72H40ZM33.5 78.5C29.9101 78.5 27 75.5899 27 72H24C24 77.2467 28.2533 81.5 33.5 81.5V78.5ZM27 72C27 68.4101 29.9101 65.5 33.5 65.5V62.5C28.2533 62.5 24 66.7533 24 72H27ZM33.5 65.5C37.0898 65.5 40 68.4101 40 72H43C43 66.7533 38.7467 62.5 33.5 62.5V65.5ZM14.5 21.5H74.5V18.5H14.5V21.5ZM14 43V22H11V43H14ZM14 68V64H11V68H14ZM75 47V70H78V47H75ZM75 22V27H78V22H75ZM76.5 28.5H89.5V25.5H76.5V28.5ZM93 32V33.5H96V32H93ZM75 27V33.5H78V27H75ZM75 33.5V47H78V33.5H75ZM94.5 32H93V35H94.5V32ZM93 32H76.5V35H93V32ZM76.5 48.5H96.5V45.5H76.5V48.5ZM91.548 33.8764L95.048 47.3764L97.952 46.6236L94.452 33.1236L91.548 33.8764ZM101.5 53.5V54H104.5V53.5H101.5ZM103 52.5H96.5V55.5H103V52.5ZM95 54V57H98V54H95ZM101.5 54V60H104.5V54H101.5ZM101.5 60V68H104.5V60H101.5ZM99.5 61.5H103V58.5H99.5V61.5ZM5.49996 65.5H12.5V62.5H5.49996V65.5ZM12.5 65.5H21.5V62.5H12.5V65.5ZM9.49996 58.5H29.5V55.5H9.49996V58.5ZM2.00005 51.5H25V48.5H2.00005V51.5ZM25.752 68.5H14.5V71.5H25.752V68.5ZM76.5 68.5H41.2479V71.5H76.5V68.5ZM80.752 68.5H76.5V71.5H80.752V68.5ZM101 68.5H96.2479V71.5H101V68.5ZM89.5 28.5C91.433 28.5 93 30.067 93 32H96C96 28.4101 93.0898 25.5 89.5 25.5V28.5ZM95 57C95 59.4853 97.0147 61.5 99.5 61.5V58.5C98.6715 58.5 98 57.8284 98 57H95ZM101.5 68C101.5 68.2761 101.276 68.5 101 68.5V71.5C102.933 71.5 104.5 69.933 104.5 68H101.5ZM96.5 48.5C99.2614 48.5 101.5 50.7386 101.5 53.5H104.5C104.5 49.0817 100.918 45.5 96.5 45.5V48.5ZM11 68C11 69.933 12.567 71.5 14.5 71.5V68.5C14.2238 68.5 14 68.2761 14 68H11ZM74.5 21.5C74.7761 21.5 75 21.7239 75 22H78C78 20.067 76.433 18.5 74.5 18.5V21.5ZM14.5 18.5C12.567 18.5 11 20.067 11 22H14C14 21.7239 14.2238 21.5 14.5 21.5V18.5Z" fill="#F0725C"/>
</svg>
