<svg width="93" height="100" viewBox="0 0 93 100" fill="none" xmlns="http://www.w3.org/2000/svg">
<path d="M11 54H43.5M50 70.9997H7C4.23858 70.9997 2 68.7612 2 65.9997V23C2 20.2386 4.23858 18 7 18H78C80.7614 18 83 20.2386 83 23V39M11 46H19M26 46H34M41 46H49M63.6562 62.4595L70.7656 69.4865L83.3438 57.0541M11 27H49V37H11V27ZM73.5 83C62.4941 78.2119 56.5469 72.7297 56 61.3784V48.4054C63.2911 47.3628 67.0426 45.9826 73.5 43C79.9574 45.9826 83.7089 47.3628 91 48.4054V61.3784C90.4531 72.7297 84.5059 78.2119 73.5 83Z" stroke="#F0725C" stroke-width="3" stroke-linecap="round" stroke-linejoin="round"/>
</svg>
